<svg viewBox="0 0 1000 1000" xmlns="http://www.w3.org/2000/svg">
<rect x="0" y="0" width="295.9674775249769" height="245.96747752497686" fill="none" stroke="red" transform=/>
<polygon  points="0,0 0,150 50,150 50,100 150,100 150,50 50,50 50,0 0,0" fill="none" stroke="blue" />
<polygon  points="0,0 0,100 100,100 100,150 150,150 150,50 50,50 50,0 0,0" fill="none" stroke="lime" />
<polygon  points="0,0 0,100 50,100 50,150 100,150 100,100 150,100 150,50 50,50 50,0 0,0" fill="none" stroke="orange" />
<polygon  points="0,0 0,50 100,50 100,100 150,100 150,50 200,50 200,0" fill="none" stroke="black" />
</svg>
